<?xml version="1.0" standalone="no"?>
<!DOCTYPE svg PUBLIC "-//W3C//DTD SVG 1.1//EN" "http://www.w3.org/Graphics/SVG/1.1/DTD/svg11.dtd" >
<svg xmlns="http://www.w3.org/2000/svg">
<metadata>
This is a custom SVG webfont generated by Font Squirrel.
</metadata>
<defs>
<font id="countersoftfontRegular" horiz-adv-x="2048" >
<font-face units-per-em="2048" ascent="1638" descent="-410" />
<missing-glyph horiz-adv-x="500" />
<glyph unicode="!" d="M292 1108l526 -302l522 -304q10 16 23 41t38 98t30 139t-25 145t-102 133l266 584q72 -34 100 -36l38 66l-290 174h-2l-294 164l-38 -66q16 -22 82 -68l-374 -522q-60 26 -121 26t-108 -18t-93 -51t-75 -64t-56 -68t-35 -50t-12 -21zM402 86l504 672l-176 100z" />
<glyph unicode="(" d="M54 650h502v-562h888v562h502l-946 1358z" />
<glyph unicode=")" d="M54 1446h502v562h888v-562h502l-946 -1358z" />
<glyph unicode="+" d="M40 808h720v-720h480v720h720v480h-720v720h-480v-720h-720v-480z" />
<glyph unicode="," d="M202 976q-26 120 36 256q-246 -508 104 -700q172 -96 416 -94h10v-310l486 486l-486 486v-310q-512 -84 -566 186zM746 1482l486 -486v310q168 26 280 17t174 -47t89 -89t29 -108t-7 -105t-21 -80l-14 -30q102 208 100 368q0 90 -35 163t-91 117t-123 75t-134 45t-122 21 t-91 5h-34v310z" />
<glyph unicode="-" d="M40 808v480h1920v-480h-1920z" />
<glyph unicode="." d="M238 1532h1524v218h-462v218h-600v-218h-462v-218zM348 128h1304v1388h-1304v-1388zM510 262v1146h164v-1146h-164zM796 1750v136h408v-136h-408zM918 266v1144h164v-1144h-164zM1326 266v1144h164v-1144h-164z" />
<glyph unicode="0" d="M40 222q0 -56 39 -95t95 -39h1652q56 0 95 39t39 95v1652q0 56 -39 95t-95 39h-1652q-56 0 -95 -39t-39 -95v-1652zM866 1072v266h204q-2 14 -3 36t4 82t21 112t56 108t98 86q6 4 22 10t99 15t203 9q42 0 92 -2v-262q-20 2 -52 4t-93 -8t-79 -40q-24 -32 -24 -148h248 v-270h-248v-774h-344v776h-204z" />
<glyph unicode="1" d="M264 986l4 -668q32 0 80 1t70 -1v668h-114h-40zM430 318q74 4 152 24l2 624q-8 2 -19 6t-51 9t-84 5v-668zM596 968l4 -628q144 -54 764 -86q52 -2 96 12t69 33t42 41t23 35t6 15q-14 104 30 112q34 20 50 48t16 44v18q-28 42 -35 71t-1 37l8 8q106 86 52 130l-6 4 q-28 26 -35 50t-1 36l6 14q30 22 39 50t3 50t-17 42t-21 30l-10 12q-18 36 -93 50t-141 10l-66 -4l-188 12q0 10 1 21t3 21l2 10q4 34 26 83t42 83l20 32q38 84 36 150t-22 106l-22 40q-78 82 -128 82q-38 0 -50 -40l-10 -156q-10 -146 -118 -208l-14 -6q-42 -48 -77 -110 t-49 -100l-16 -38q-12 -48 -40 -88t-57 -63t-57 -39t-46 -20z" />
<glyph unicode="2" d="M264 1110l4 668q32 0 80 -1t70 1v-668h-114h-40zM430 1110v668q74 -4 152 -24l2 -624q-8 -2 -19 -6t-51 -9t-84 -5zM596 1128l4 628q144 54 764 86q52 2 96 -12t69 -34t42 -40t23 -34l6 -16q-14 -104 30 -112q72 -46 66 -110q-28 -42 -35 -71t-1 -37l8 -8q34 -28 51 -51 t17 -38t-4 -26t-12 -15l-6 -4q-28 -26 -35 -50t-1 -36l6 -14q30 -22 39 -50t3 -50t-17 -42t-21 -30l-10 -12q-36 -74 -282 -58l-18 2l-188 -12q0 -10 1 -21t3 -21l2 -10q8 -76 88 -198q38 -84 36 -150t-22 -106l-22 -40q-78 -82 -128 -82q-16 0 -29 10t-17 20l-4 10l-10 156 q-10 146 -118 208l-14 6q-42 48 -77 110t-49 100l-16 38q-38 144 -190 206z" />
<glyph unicode="3" d="M280 210h1440v1300l-344 376h-1096v-1676zM382 310v1474h936v-326h298v-1148h-1234zM530 1274l172 -716h156l142 536l142 -536h154l174 716h-142h-116v-134h82l-80 -366l-126 500h-172l-130 -492l-108 492h-148z" />
<glyph unicode="4" d="M280 210h1440v1300l-344 376h-1096v-1676zM382 310v1474h936v-326h298v-1148h-1234zM600 486h208h154v150h-56l94 148l190 -298h210l-294 442l266 418h-200l-168 -276l-174 276h-202l266 -412z" />
<glyph unicode="5" d="M266 314h1360v880h-130v-752h-1102v1102h752v130h-880v-1360zM1012 1108l30 -30l24 -24l402 402l158 -158l108 484l-484 -108l166 -164z" />
<glyph unicode="6" d="M200 501q0 -105 74 -179t179 -74t179 74t74 179t-74 179t-179 74t-179 -74t-74 -179zM200 1068q222 0 411 -110t299 -299t110 -411h294q0 226 -88 433t-237 356t-356 237t-433 88v-294zM200 1554q266 0 508 -103t417 -278t278 -417t103 -508h294q0 326 -127 622t-341 510 t-510 341t-622 127v-182v-112z" />
<glyph unicode="7" d="M196 258q0 -48 35 -83t84 -35t84 35t35 83v1580q0 48 -35 83t-84 35t-84 -35t-35 -83v-1580zM454 746q16 4 43 8t106 11t150 4t158 -22t149 -57q6 -4 17 -11t47 -27t77 -37t107 -34t136 -25t164 -4t192 24l4 1090q-10 -6 -31 -18t-85 -37t-130 -39t-161 -13t-185 27 q-6 0 -24 5t-106 51t-212 132q-10 6 -30 17t-102 30t-188 21q-46 0 -96 -4v-1092z" />
<glyph unicode="8" d="M40 242q0 -64 45 -109t109 -45h556l76 98q2 6 7 18t8 50t-6 75t-42 89t-91 98l-140 104h-14q-54 0 -115 -3t-155 -23t-136 -54l-102 -102v-196zM40 616q24 14 60 30t136 36t222 20q-4 6 -11 17t-23 42t-24 62t-8 70t18 71q-10 -2 -26 -4t-62 -2t-89 7t-97 33t-96 68v-450 zM40 1696q26 26 62 54t118 69t160 45h696l-146 -96h-168q8 -4 20 -12t43 -38t55 -67t42 -100t18 -135q0 -10 -1 -28t-12 -69t-32 -97t-69 -100t-114 -90q-6 -4 -14 -12t-24 -32t-21 -48t7 -56t48 -62q14 -8 36 -23t80 -62t101 -94t76 -113t29 -126q0 -8 1 -21t-4 -52 t-16 -76t-38 -84t-69 -83h902q64 0 109 45t45 109v1124h-378v-390h-120v390h-394v120h394v384h120v-384h378v368q0 64 -45 109t-109 45h-1612q-64 0 -109 -45t-45 -109v-158zM130 1532q-8 -54 5 -130t31 -126l18 -48q30 -58 71 -103t69 -61l26 -16q44 -12 84 -14t69 4t55 20 t44 30t32 36t22 35t15 32t8 22t3 9q26 154 -80 376l-6 10q-24 52 -59 87t-72 50t-64 20t-53 3h-22q-56 -14 -96 -43t-58 -58t-29 -65t-12 -49t-1 -21z" />
<glyph unicode="9" d="M74 784q6 -6 17 -16t48 -36t77 -44t102 -30t124 -7t142 38t160 95q-10 2 -22 4t-40 13t-41 27t-6 48t47 72l-122 36q-200 74 -14 118q16 4 34 8l-94 64q-182 138 -18 158h12l-82 90q-104 128 -30 122q30 -4 92 -28q36 -14 95 -38t195 -94t216 -132q4 12 12 31t32 72 t49 99t61 93t70 69l40 44q40 34 40 -2l80 32q54 14 26 -26q-2 -4 -4 -6h76q78 -12 -70 -72q-12 -4 -26 -10q8 0 24 -1t60 -15t83 -36t84 -73t73 -119q2 0 0 -10t3 -24t10 -31t24 -30t43 -21t67 -5t97 21q-2 -2 1 -10t-6 -22t-22 -30t-49 -33t-86 -27l116 -8q134 -18 -70 -72 q-38 -10 -88 -22l-6 -24q-4 -16 -24 -63t-44 -91t-70 -102t-99 -106t-133 -92t-170 -70q-14 -6 -38 -14t-102 -24t-159 -20t-200 15t-233 63q-12 6 -33 17t-76 44t-101 67t-92 83t-62 93z" />
<glyph unicode=":" d="M158 1288l186 186l268 -266l226 226l-266 268l186 186h-374h-226v-226v-374zM160 208h228h372l-186 186l266 268l-226 226l-266 -266l-188 186v-374v-226zM1160 1434l226 -226l266 266l188 -186v374v226h-228h-372l186 -186zM1162 662l266 -268l-186 -186h374h226v226 v374l-186 -186l-268 266z" />
<glyph unicode=";" d="M280 1448l720 -800l720 800h-1440z" />
<glyph unicode="&#x3c;" d="M40 1048l1920 -960v400l-1200 560l1200 560v400z" />
<glyph unicode="=" d="M158 1658l268 -264l-188 -190l600 2v602l-186 -188l-268 268zM160 438l228 -230l266 268l188 -188v602l-602 2l188 -190zM1160 1206h600l-188 188l268 264l-226 230l-268 -268l-186 188v-602zM1162 288l186 188l268 -268l226 230l-268 264l188 190l-600 -2v-602z" />
<glyph unicode="&#x3e;" d="M40 88l1920 960l-1920 960v-400l1200 -560l-1200 -560v-400z" />
<glyph unicode="A" d="M40 1048q0 -196 76 -373t205 -306t306 -205t373 -76t373 76t306 205t205 306t76 373t-76 373t-205 306t-306 205t-373 76t-373 -76t-306 -205t-205 -306t-76 -373zM200 1048q0 332 234 566t566 234t566 -234t234 -566t-234 -566t-566 -234t-566 234t-234 566z" />
<glyph unicode="B" d="M40 1048q0 -196 76 -373t205 -306t306 -205t373 -76t373 76t306 205t205 306t76 373t-76 373t-205 306t-306 205t-373 76t-373 -76t-306 -205t-205 -306t-76 -373zM200 1048q0 332 234 566t566 234t566 -234t234 -566t-234 -566t-566 -234t-566 234t-234 566zM600 1048 q0 166 117 283t283 117t283 -117t117 -283t-117 -283t-283 -117t-283 117t-117 283z" />
<glyph unicode="C" d="M160 142q0 -22 15 -37t37 -15h1576q22 0 37 15t15 37v26v1104h-78h-1524h-78v-1104v-26zM160 1324h1680v158v26v130q0 22 -15 38t-37 16h-316v-238h-130v238h-684v-238h-130v238h-316q-22 0 -37 -16t-15 -38v-130v-26v-158zM238 168v290h474v-290h-474zM238 536v262h474 v-262h-474zM238 878v314h474v-314h-474zM554 1482h78v524h-78v-524zM790 168v290h420v-290h-420zM790 536v262h420v-262h-420zM790 878v314h420v-314h-420zM1288 168v290h474v-290h-474zM1288 536v262h474v-262h-474zM1288 878v314h474v-314h-474zM1368 1482h78v524h-78 v-524z" />
<glyph unicode="D" d="M234 714h572v-450h960v866l-230 252h-342l-2 198l-228 252h-730v-1118zM302 780v984h624q12 -14 33 -37t65 -70t72 -79l28 -32v-164h-318v-602h-504zM874 330v984h624q12 -14 33 -37t65 -70t73 -79t27 -32v-766h-822z" />
<glyph unicode="E" d="M140 88h120h1492h108v1768h-108h-84v-144h72v-1504h-1480v1504h72v144h-72h-120v-1768zM380 422h1240v170h-1240v-170zM380 804h1240v170h-1240v-170zM380 1186h1240v170h-1240v-170zM380 1568h1240v288h-406v4v128q0 20 -18 20h-392q-18 0 -18 -20v-128v-4h-406v-288z M832 1894v60q0 8 10 8h316q10 0 10 -8v-60q0 -8 -10 -8h-316q-10 0 -10 8z" />
<glyph unicode="F" d="M40 88h1920v1640l-328 280h-1592v-1920zM134 182v1732h94v-422l1338 -2l2 424h18l280 -234v-1498h-1732zM1164 1586v222h94v-222h-94z" />
<glyph unicode="G" d="M34 926h146q14 -98 50 -188l-124 -74l122 -210l126 74q60 -74 134 -134l-70 -122l212 -122l70 124q86 -34 178 -46v-146h244v146q104 14 200 56l66 -116l212 122l-70 120q76 62 134 142l120 -72l124 212l-126 74l-4 -4q30 80 42 164h146v244h-146q-14 100 -52 192l124 72 l-124 210l-124 -72q-60 74 -136 132l70 122l-210 122l-72 -124q-84 32 -174 44v146h-244v-146q-96 -14 -186 -50l-70 122l-212 -120l70 -124q-74 -60 -132 -136l-122 72l-124 -210l124 -74q-34 -86 -46 -178h-146v-244zM756 1048q0 102 71 173t173 71t173 -71t71 -173 t-71 -173t-173 -71t-173 71t-71 173z" />
<glyph unicode="H" d="M280 1134l628 626v-398h40q26 0 103 -7t149 -22t161 -49t158 -82t123 -127t72 -179q7 -38 7 -83q0 -72 -18 -162q-29 -145 -111 -315q4 8 10 24t21 67t19 94q3 29 3 67q0 19 -1 41q-2 65 -29 109t-74 96t-134 69t-206 28q-28 3 -59 3q-101 0 -234 -28v-400z" />
<glyph unicode="I" d="M286 896q-7 -38 -7 -83q0 -72 18 -162q29 -145 111 -315q-4 8 -10 24t-21 67t-19 94q-3 29 -3 67q0 19 1 41q2 65 29 109t74 96t134 69t206 28q28 3 59 3q101 0 234 -28v-400l628 628l-628 626v-398h-40q-26 0 -103 -7t-149 -22t-161 -49t-158 -82t-123 -127t-72 -179z " />
<glyph unicode="J" d="M286 1200q-7 38 -7 83q0 72 18 162q29 145 111 315q-4 -8 -10 -24t-21 -67t-19 -94q-3 -29 -3 -67q0 -19 1 -41q2 -65 29 -109t74 -96t134 -69t206 -28q28 -3 59 -3q101 0 234 28v400l628 -628l-628 -626v398h-40q-26 0 -103 7t-149 22t-161 49t-158 82t-123 127t-72 179 z" />
<glyph unicode="K" d="M280 962l628 -626v398h40q26 0 103 7t149 22t161 49t158 82t123 127t72 179q7 38 7 83q0 72 -18 162q-29 145 -111 315q4 -8 10 -24t21 -67t19 -94q3 -29 3 -67q0 -19 -1 -41q-2 -65 -29 -109t-74 -96t-134 -69t-206 -28q-28 -3 -59 -3q-101 0 -234 28v400z" />
<glyph unicode="L" d="M280 1048l1440 -720v1440z" />
<glyph unicode="M" d="M280 328l1440 720l-1440 720v-1440z" />
<glyph unicode="N" d="M280 328h1440l-720 1440z" />
<glyph unicode="O" d="M280 1768l720 -1440l720 1440h-1440z" />
<glyph unicode="P" d="M120 1008q0 228 112 422t306 306t422 112v-840h840q0 -228 -112 -422t-306 -306t-422 -112t-422 112t-306 306t-112 422zM1080 1128v800q218 0 402 -107t291 -291t107 -402h-800z" />
<glyph unicode="Q" d="M40 1048q0 196 76 373t205 306t306 205t373 76t373 -76t306 -205t205 -306t76 -373t-76 -373t-205 -306t-306 -205t-373 -76t-373 76t-306 205t-205 306t-76 373z" />
<glyph unicode="R" d="M108 562l8 -28l182 -232q50 -50 95 -82t67 -40l20 -8q28 -8 56 -12t53 -4t49 3t43 8t37 10t31 11t22 11t14 8l5 3l352 342q32 40 32 73q0 39 -28 65l-24 24q-44 34 -77 34h-4q-35 -2 -57 -22l-20 -20l-248 -242q-60 -77 -121 -77q-32 0 -65 21q-16 10 -16 12l-140 142 q-44 52 -44 97q0 36 28 67l8 8l300 296q30 35 30 65q0 37 -30 67l-22 24q-32 30 -72 30q-50 0 -92 -38l-304 -300q-81 -87 -81 -210q0 -50 13 -106zM619 793q5 -25 16 -46t23 -31l14 -12q18 -22 41 -32t39 -10t33 6t22 9t9 7l476 470q30 37 30 69q0 39 -28 71l-24 24 q-37 48 -84 48h-4q-18 0 -35 -7t-27 -13l-8 -8l-422 -416q-42 -34 -59 -69q-13 -27 -13 -48q0 -6 1 -12zM854 1406l24 -24q44 -34 77 -34h4q35 2 57 22l20 20l248 242q60 77 121 77q32 0 65 -21l16 -12l140 -142q26 -30 36 -59t6 -48t-11 -34t-15 -23l-6 -8l-302 -296 q-32 -31 -32 -64q0 -40 46 -84l8 -8q38 -30 73 -30h4q37 2 61 20l26 18l304 300q81 87 81 210q0 50 -13 106l-8 28l-182 232q-50 50 -95 82t-67 40l-20 8q-52 16 -108 16h-13q-45 0 -90 -12q-51 -14 -75 -28l-24 -14l-352 -342q-32 -40 -32 -73q0 -39 28 -65z" />
<glyph unicode="S" d="M240 1048q0 -116 82 -198t198 -82q66 0 124 28l560 -384q-4 -22 -4 -44q0 -116 82 -198t198 -82t198 82t82 198t-82 198t-198 82q-76 0 -142 -38l-546 376q8 30 8 62q0 36 -10 70l548 368q66 -38 142 -38q116 0 198 82t82 198t-82 198t-198 82t-198 -82t-82 -198 q0 -22 4 -44l-568 -380q-56 24 -116 24q-116 0 -198 -82t-82 -198z" />
<glyph unicode="T" d="M40 88h512v512h-512v-512zM40 792h512v512h-512v-512zM40 1496h512v512h-512v-512zM744 88h512v512h-512v-512zM744 792h512v512h-512v-512zM744 1496h512v512h-512v-512zM1448 88h512v512h-512v-512zM1448 792h512v512h-512v-512zM1448 1496h512v512h-512v-512z" />
<glyph unicode="U" d="M40 88h512v512h-512v-512zM40 792h512v512h-512v-512zM40 1496h512v512h-512v-512zM680 248h1280v200h-1280v-200zM680 928h1280v200h-1280v-200zM720 1648h1240v200h-1240v-200z" />
<glyph unicode="V" d="M40 190h1920v202h-1920v-202zM192 492h202v658h-202v-658zM546 492h202v910h-202v-910zM898 492h204v1212h-204v-1212zM1252 492h202v1414h-202v-1414zM1606 492h202v808h-202v-808z" />
<glyph unicode="W" d="M226 110h220v766h-220v-766zM226 1206l150 -152l548 534l302 -300l466 466l68 -70l14 302h-316l82 -82l-314 -302l-316 302zM664 110h220v932h-220v-932zM1102 110h220v1096h-220v-1096zM1540 110h220v1260h-220v-1260z" />
<glyph unicode="X" d="M40 310q0 -22 15 -37t35 -15h1820q20 0 35 15t15 37v1084q0 22 -15 37t-35 15h-456v340q0 22 -14 37t-36 15h-808q-22 0 -36 -15t-14 -37v-340h-456q-20 0 -35 -15t-15 -37v-1084zM658 1448v300h684v-302zM848 1004q0 62 45 107t107 45t107 -45t45 -107q0 -44 -24 -81 t-62 -57l60 -292h-252l60 292q-38 20 -62 57t-24 81z" />
<glyph unicode="Y" d="M280 210h1440v1300l-344 376h-1096v-1676zM382 310v1474h936v-326h298v-1148h-1234zM492 854h78v146h50q54 0 82 6q20 4 40 18t33 38t13 60q0 46 -23 75t-55 39q-22 6 -94 6h-124v-388zM570 1066v110h38q42 0 56 -2q18 -4 31 -18t13 -34q0 -18 -9 -31t-25 -19t-62 -6h-42 zM852 854h148q42 0 68 8q34 12 56 32q26 26 40 68q12 34 12 82q0 54 -13 91t-37 63t-58 36q-24 8 -74 8h-142v-388zM930 920v256h36q48 0 64 -4q22 -4 36 -18t22 -38t8 -69t-8 -71t-21 -37t-31 -15q-14 -4 -48 -4h-58zM1244 854h78v166h160v64h-160v92h186v66h-264v-388z " />
<glyph unicode="Z" d="M66 1048l534 -266v160h266h28v-54v-240h-160l266 -534l266 534h-160v266v28h54h240v-160l534 266l-534 266v-160h-240h-54v28v26v240h160l-266 534l-266 -534h160v-240v-26v-28h-28h-266v160z" />
<glyph unicode="a" d="M86 980h228h2v-732h564v320h240v-320h564v732h230l-354 336v252h-160v-100l-400 380z" />
<glyph unicode="b" d="M40 168q0 -16 12 -28t28 -12h1840q16 0 28 12t12 28v60v28q0 176 -105 300t-255 124h-1200q-150 0 -255 -124t-105 -300v-28v-60zM434 1302q0 -234 166 -399t400 -165t400 165t166 399t-166 400t-400 166t-400 -166t-166 -400z" />
<glyph unicode="c" d="M40 652h328q30 114 120 166h-316q-54 0 -93 -45t-39 -111v-10zM186 1048q0 -86 61 -147t147 -61t147 61t61 147t-61 147t-147 61t-147 -61t-61 -147zM404 560q0 -8 2 -16h1182v16q0 110 -65 186t-157 76h-740q-92 0 -157 -76t-65 -186zM648 1204q0 -144 102 -246 t246 -102t246 102t102 246t-102 246t-246 102t-246 -102t-102 -246zM1398 1048q0 -86 61 -147t147 -61t147 61t61 147t-61 147t-147 61t-147 -61t-61 -147zM1502 818q88 -54 116 -166h342v10q0 66 -39 111t-93 45h-326z" />
<glyph unicode="d" d="M280 210h1440v1300l-344 376h-1096v-1676zM382 310v1474h936v-326h298v-1148h-1234z" />
<glyph unicode="e" d="M40 468h1920v1160h-1920v-1160zM160 578v846l840 -520l840 520v-846h-1680zM214 1518h1572l-786 -486z" />
<glyph unicode="f" d="M40 1048q0 -196 76 -373t205 -306t306 -205t373 -76t373 76t306 205t205 306t76 373t-76 373t-205 306t-306 205t-373 76t-373 -76t-306 -205t-205 -306t-76 -373zM280 868v360h540v540h360v-540h540v-360h-540v-540h-360v540h-540z" />
<glyph unicode="g" d="M42 998q0 -14 2 -14q4 -102 64 -102h2q14 0 16 2q36 12 56 38t24 48l2 20q1 9 1 18q0 31 -17 56q-22 32 -42 42t-26 10h-12q-70 0 -70 -118zM86 1328q-2 -28 8 -55t25 -45t31 -31t26 -20t12 -7q104 -60 116 -170l2 -6q-6 -60 -40 -106t-59 -62t-31 -16q-28 0 -45 -20 t-20 -32t-3 -20q-8 -14 3 -47t24 -58l13 -25q24 -48 46 -62t34 -6l12 10q16 14 34 52t26 68l10 30q-2 14 5 38t17 42l8 18q70 95 166 95q23 0 48 -5l16 -4q120 -16 280 -148q52 -44 94 -75t60 -41l16 -8q33 -14 62 -14q54 0 92 50l6 6q31 50 31 84q0 35 -19 50l-16 16 q-48 30 -105 30q-33 0 -69 -10q-24 -6 -45 -5t-37 5l-14 6q-40 8 -87 31t-75 43l-28 18q-78 52 -159 161t-121 191l-42 84q-61 122 -153 122h-3q-38 0 -64 -16q-72 -38 -88 -136zM216 1592l16 8q30 28 110 64q17 7 30 7q48 0 56 -83l2 -30q-8 -50 -9 -82t3 -38l4 -4 q8 -18 21 -38t23 -32l12 -12q27 -25 56 -25q33 0 70 33q48 32 63 78q9 28 9 49q0 14 -4 25l-10 30q-9 53 -9 88q0 41 7 60l6 16q8 22 30 28t38 2l18 -4q26 -12 92 -12q52 0 75 37t21 75l-2 36q-42 104 -160 112h-12q-48 0 -79 -22t-39 -42l-6 -22q-20 -84 -50 -121t-50 -31 l-20 8q-102 34 -102 72q-42 -32 -90 -77t-74 -75l-28 -28q-23 -37 -23 -47q0 -4 5 -3zM322 526q-2 -66 48 -170q16 -38 56 -68t70 -40l30 -12q48 -12 91 -12t73 8l28 8q52 12 108 41t88 51l32 22q46 38 88 72t60 48l20 14q106 78 256 110q26 10 50 8t40 -6t29 -14t17 -13 t6 -5q24 -28 47 -37t33 -5l10 4q34 10 50 34t14 42l-2 20q-6 32 -25 50t-35 18l-16 2q-42 -10 -63 -10t-25 6l-4 4q-38 22 -72 90q-15 43 -15 75q0 11 2 21q7 38 25 58l20 18q38 44 61 84t27 58l4 18q28 94 28 169t-14 121l-16 46q-14 42 -46 86t-56 66l-26 22l10 38 q6 26 28 6q40 -6 56 16q18 25 18 47q0 27 -30 47q-16 4 -30 4q-20 0 -34 -11t-16 -23l-4 -12q-9 -77 -38 -77q-3 0 -6 1q-14 2 -26 16q-32 18 -124 42q-52 8 -96 8q-35 0 -66 -5q-70 -11 -110 -33l-42 -22q-48 -26 -88 -67t-63 -81t-38 -76t-19 -58l-6 -22q-7 -36 -7 -73 q0 -99 51 -207q42 -106 172 -186l4 -4q32 -18 91 -23q27 -2 51 -2q29 0 54 3l44 4q22 2 41 2q113 0 121 -82v-24q-14 -48 -45 -89t-65 -65t-65 -41t-53 -23l-20 -6q-40 -14 -76 -14q-12 0 -24 2q-46 6 -81 28t-59 45t-36 41l-12 20q-93 145 -220 145q-24 0 -48 -5l-40 -14 q-44 -18 -76 -53t-45 -72t-21 -70t-8 -55v-22zM656 162l138 -40q128 -34 229 -34h21q36 2 63 15t39 26t18 33t6 24v12q6 36 34 50t52 10l24 -4q22 -4 58 -4h60l24 2q136 40 140 116q-16 102 -96 116q-68 18 -116 18q-16 0 -29 -2t-17 -4l-6 -2q-26 -8 -62 -26t-58 -34 l-22 -16q-214 -173 -229 -173q-1 0 -1 1q-186 -84 -266 -84h-4zM912 2006q46 -32 70 -64t24 -48v-14q0 -12 7 -28t13 -28l6 -10q20 -24 53 -28t55 2l24 8q25 15 25 34q0 24 -41 56l-6 4q-6 11 -6 18q0 17 29 16h9q30 -2 70 -16q30 -12 39 -31t5 -33l-6 -14q-8 -16 -8 -30 q0 -29 34 -52q18 -8 33 -8q41 0 53 62l2 12q32 24 75 26h14q34 0 57 -8l28 -10l-184 106q-152 80 -426 80zM964 1369q2 23 14 37l15 20q9 12 44 34t79 26q14 4 36 4q78 0 126 -46q6 -6 17 -18t25 -52q10 -28 10 -58q0 -13 -2 -26q-16 -88 -56 -152q-6 -10 -18 -25t-47 -36 q-22 -13 -45 -13q-13 0 -26 4q-8 2 -24 11t-54 51t-64 104q-4 6 -7 14t-11 32t-11 45q-2 13 -2 26q0 9 1 18zM1478 884q-3 -11 -3 -23q0 -46 49 -97q38 -26 80 -28t57 5t23 13q24 10 37 45t15 63l2 30q-12 36 -5 60t21 34l12 10q30 18 54 4t40 -40l14 -28q34 -39 53 -39 q17 0 21 31q6 18 8 57t2 69l-2 32q4 46 -32 50q-6 1 -12 1q-30 0 -62 -17l-38 -20q-30 -10 -44 10t-12 42l4 24q8 70 114 100l10 2q18 12 24 33t0 42t-15 40t-17 31l-10 14q-50 60 -110 62q-12 0 -24 -3t-18 -7l-6 -2q-34 -20 -57 -51t-27 -44t-6 -21q-5 -12 -5 -32 q0 -64 49 -204q10 -38 6 -63t-20 -39t-32 -20t-30 -8l-14 -2q-42 -24 -65 -53t-27 -47zM1570 1568q34 -36 71 -36q35 0 73 32l8 6q31 33 31 62t-31 54l-6 4q-38 24 -74 24q-18 0 -33 -6t-21 -12l-6 -4q-32 -30 -32 -65q0 -28 20 -59zM1602 438q-10 -18 -10 -33q0 -22 22 -37 q15 -8 29 -8q8 0 15 3q20 7 32 25l14 16q44 46 92 118t72 122l24 48q15 37 15 71q0 55 -39 103q-20 32 -46 32q-3 1 -6 1l-14 -4q-10 -5 -16 -11l-4 -4q-12 -24 -9 -41t13 -27l12 -10q6 -4 14 -16t10 -22l4 -10q6 -40 -4 -56t-24 -14l-12 4q-21 37 -46 37q-11 0 -24 -7 q-18 -10 -25 -23t-7 -21l2 -8q14 -20 27 -28t19 -4l6 2q24 8 33 -2t7 -17t-4 -13q0 -30 -7 -53t-16 -35t-19 -20t-16 -12l-6 -2q-102 -14 -108 -44z" />
<glyph unicode="h" d="M120 1048q0 -364 258 -622t622 -258t622 258t258 622t-258 622t-622 258t-622 -258t-258 -622zM280 1048q0 298 211 509t509 211t509 -211t211 -509t-211 -509t-509 -211t-509 211t-211 509zM614 1276l190 -24q20 92 72 137t132 45t128 -43t48 -103q0 -44 -26 -80 q-18 -22 -108 -95t-120 -132t-30 -149v-50h188v18q0 71 14 101q16 33 80 87q126 104 165 165t39 129q0 124 -105 216t-283 92q-168 0 -272 -91t-112 -223zM900 506h206v206h-206v-206z" />
<glyph unicode="i" d="M40 1048q0 -196 76 -373t205 -306t306 -205t373 -76t373 76t306 205t205 306t76 373t-76 373t-205 306t-306 205t-373 76t-373 -76t-306 -205t-205 -306t-76 -373zM742 338v80h18q66 0 86 26q19 25 19 102q0 14 -1 30v434q1 16 1 30q0 76 -19 98q-20 24 -93 24h-11v76 q174 10 372 92l32 -16v-740q-1 -16 -1 -30q0 -75 18 -100q19 -26 78 -26h17v-80h-516zM836 1592q2 74 46 119t112 47q72 -2 115 -48t43 -118q0 -74 -45 -120t-113 -46t-112 46t-46 120z" />
<glyph unicode="j" d="M240 366q0 -34 24 -57t56 -23h1280q34 0 57 23t23 57v1096l-120 -148v-842q0 -28 -19 -47t-47 -19h-1066q-28 0 -48 19t-20 47v1066q0 28 20 48t48 20h880l96 120h-1084q-32 0 -56 -24t-24 -56v-1280zM748 842l14 -240l238 42l666 850l-252 198zM1440 1726l254 -198 l66 84l-254 198z" />
<glyph unicode="k" d="M120 1048q0 -364 258 -622t622 -258t622 258t258 622t-258 622t-622 258t-622 -258t-258 -622zM280 1048q0 298 211 509t509 211t509 -211t211 -509t-211 -509t-509 -211t-509 211t-211 509zM896 930l114 188l428 -262l-116 -188zM896 930v690h220v-690h-220z" />
<glyph unicode="l" d="M40 1048q0 -196 76 -373t205 -306t306 -205t373 -76t373 76t306 205t205 306t76 373t-76 373t-205 306t-306 205t-373 76t-373 -76t-306 -205t-205 -306t-76 -373zM894 926v690h218v-568l290 -178l-114 -186z" />
<glyph unicode="m" d="M202 1237q0 -255 180 -435t436 -180q220 0 390 140l478 -506q14 -14 32 -14t30 12l36 34q14 12 14 30t-12 32l-482 510q130 166 130 378q0 254 -181 435t-436 181t-435 -181t-180 -436zM338 1238q0 198 141 338t339 140t338 -140t140 -338t-140 -339t-338 -141t-339 141 t-141 339z" />
<glyph unicode="n" d="M220 1152q0 -158 103 -293t277 -213q-2 -32 -8 -70t-35 -106t-77 -116q276 156 332 226q92 -18 188 -18q324 0 552 173t228 417t-228 417t-552 173t-552 -173t-228 -417z" />
<glyph unicode="o" d="M204 1128q0 -120 78 -222t210 -162q-6 -136 -90 -222q208 118 250 172q70 -14 144 -14q244 0 417 131t173 316t-173 316t-418 131t-418 -131t-173 -315zM1094 706q118 -70 268 -70q52 0 104 10q14 -16 60 -48t86 -54l38 -22q-62 62 -66 162q96 44 154 119t58 163 q0 132 -122 228t-298 100q60 -90 60 -192q0 -130 -94 -237t-248 -159z" />
<glyph unicode="p" d="M154 620q0 -92 64 -156t156 -64h8l-56 -312h1348l-56 312h8q92 0 156 64t64 156v790q0 92 -64 156t-156 64h-136v378h-980v-378h-136q-92 0 -156 -64t-64 -156v-790zM392 142l152 836h912l152 -836h-1216zM564 1632v326h872v-326h-872zM1540 1408q0 46 32 78t77 32 t77 -32t32 -78t-32 -78t-77 -32t-77 32t-32 78z" />
<glyph unicode="q" d="M170 218h1660v1660h-1660v-1660zM296 344v1408h1408v-1408h-1408z" />
<glyph unicode="r" d="M62 196h1658v1238l-130 -190v-916h-1398v1396h1354l174 132h-1658v-1660zM254 1118l636 -634q32 44 294 391t508 673l246 326l-24 26q-244 -196 -1122 -928l-342 342z" />
<glyph unicode="s" d="M30 1264q-2 -6 118 -121t243 -230t125 -120t-58 -335t-54 -334t300 157t299 161t300 -159t301 -155t-56 333t-61 334t123 122t242 232t118 121q-2 8 -334 50t-336 45t-149 305t-153 302t-151 -303t-147 -306t-336 -47t-334 -52z" />
<glyph unicode="t" d="M30 1264q-2 -6 118 -121t243 -230t125 -120t-58 -335t-54 -334t300 157t299 161t300 -159t301 -155t-56 333t-61 334t123 122t242 232t118 121q-2 8 -334 50t-336 45t-149 305t-153 302t-151 -303t-147 -306t-336 -47t-334 -52zM342 1166q2 4 227 34t228 33t100 208 t102 205t103 -205t101 -207t228 -31t227 -34t-162 -161t-165 -160t41 -227t38 -226t-204 105t-204 108t-203 -109t-203 -106t37 226q40 218 40 227q0 3 -84 82q-83 78 -165 156t-82 82z" />
<glyph unicode="u" d="M30 1264q-2 -6 118 -121t243 -230t125 -120t-58 -335t-54 -334t300 157t299 161t300 -159t301 -155t-56 333t-61 334t123 122t242 232t118 121q-2 8 -334 50t-336 45t-149 305t-153 302t-151 -303t-147 -306t-336 -47t-334 -52zM264 1188l42 -42l344 -340l-86 -470 l438 214v1150l-224 -468zM342 1166q2 4 227 34t228 33t100 208t102 205t103 -205t101 -207t228 -31t227 -34t-162 -161t-165 -160t41 -227t38 -226t-204 105t-204 108t-203 -109t-203 -106t37 226q40 218 40 227q0 3 -84 82q-83 78 -165 156t-82 82z" />
<glyph unicode="v" d="M40 482h764v-148h-198v-98h788v98h-198v148h764v1378h-1920v-1378zM212 654v1034h1576v-1034h-1576z" />
<glyph unicode="w" d="M42 1048q0 -236 116 -436t315 -316t435 -116q306 0 541 189t303 479l-138 46q-54 -246 -251 -407t-455 -161q-196 0 -362 96t-263 263t-97 363t97 363t263 263t362 96q232 0 419 -133t261 -345l-238 -60l378 -228l230 378l-228 -56q-88 260 -313 425t-509 165 q-236 0 -435 -116t-315 -316t-116 -436z" />
<glyph unicode="x" d="M152 538l338 -338l510 508l510 -508l338 338l-508 510l508 510l-338 338l-510 -508l-510 508l-338 -338l508 -510z" />
<glyph unicode="y" d="M48 966l220 220l388 -386q992 828 1268 1048l28 -28q-1104 -1462 -1186 -1572z" />
<glyph unicode="z" d="M40 436h1920v1224h-1920v-1224zM160 568v1000h1680v-1000l-640 400l-160 -120l-480 400zM1480 1328q0 -50 35 -85t85 -35t85 35t35 85t-35 85t-85 35t-85 -35t-35 -85z" />
<glyph unicode="&#xaa;" d="M86 980h228h2v-732h564v320h240v-320h564v732h230l-354 336v252h-160v-100l-400 380z" />
<glyph unicode="&#xad;" d="M40 808v480h1920v-480h-1920z" />
<glyph unicode="&#xb2;" d="M264 1110l4 668q32 0 80 -1t70 1v-668h-114h-40zM430 1110v668q74 -4 152 -24l2 -624q-8 -2 -19 -6t-51 -9t-84 -5zM596 1128l4 628q144 54 764 86q52 2 96 -12t69 -34t42 -40t23 -34l6 -16q-14 -104 30 -112q72 -46 66 -110q-28 -42 -35 -71t-1 -37l8 -8q34 -28 51 -51 t17 -38t-4 -26t-12 -15l-6 -4q-28 -26 -35 -50t-1 -36l6 -14q30 -22 39 -50t3 -50t-17 -42t-21 -30l-10 -12q-36 -74 -282 -58l-18 2l-188 -12q0 -10 1 -21t3 -21l2 -10q8 -76 88 -198q38 -84 36 -150t-22 -106l-22 -40q-78 -82 -128 -82q-16 0 -29 10t-17 20l-4 10l-10 156 q-10 146 -118 208l-14 6q-42 48 -77 110t-49 100l-16 38q-38 144 -190 206z" />
<glyph unicode="&#xb3;" d="M280 210h1440v1300l-344 376h-1096v-1676zM382 310v1474h936v-326h298v-1148h-1234zM530 1274l172 -716h156l142 536l142 -536h154l174 716h-142h-116v-134h82l-80 -366l-126 500h-172l-130 -492l-108 492h-148z" />
<glyph unicode="&#xb9;" d="M264 986l4 -668q32 0 80 1t70 -1v668h-114h-40zM430 318q74 4 152 24l2 624q-8 2 -19 6t-51 9t-84 5v-668zM596 968l4 -628q144 -54 764 -86q52 -2 96 12t69 33t42 41t23 35t6 15q-14 104 30 112q34 20 50 48t16 44v18q-28 42 -35 71t-1 37l8 8q106 86 52 130l-6 4 q-28 26 -35 50t-1 36l6 14q30 22 39 50t3 50t-17 42t-21 30l-10 12q-18 36 -93 50t-141 10l-66 -4l-188 12q0 10 1 21t3 21l2 10q4 34 26 83t42 83l20 32q38 84 36 150t-22 106l-22 40q-78 82 -128 82q-38 0 -50 -40l-10 -156q-10 -146 -118 -208l-14 -6q-42 -48 -77 -110 t-49 -100l-16 -38q-12 -48 -40 -88t-57 -63t-57 -39t-46 -20z" />
<glyph unicode="&#xba;" d="M204 1128q0 -120 78 -222t210 -162q-6 -136 -90 -222q208 118 250 172q70 -14 144 -14q244 0 417 131t173 316t-173 316t-418 131t-418 -131t-173 -315zM1094 706q118 -70 268 -70q52 0 104 10q14 -16 60 -48t86 -54l38 -22q-62 62 -66 162q96 44 154 119t58 163 q0 132 -122 228t-298 100q60 -90 60 -192q0 -130 -94 -237t-248 -159z" />
<glyph unicode="&#x152;" horiz-adv-x="4096" d="M2188 88h120h1492h108v1768h-108h-84v-144h72v-1504h-1480v1504h72v144h-72h-120v-1768zM2428 422h1240v170h-1240v-170zM2428 804h1240v170h-1240v-170zM2428 1186h1240v170h-1240v-170zM2428 1568h1240v288h-406v4v128q0 20 -18 20h-392q-18 0 -18 -20v-128v-4h-406 v-288zM2880 1894v60q0 8 10 8h316q10 0 10 -8v-60q0 -8 -10 -8h-316q-10 0 -10 8zM280 1768l720 -1440l720 1440h-1440z" />
<glyph unicode="&#x153;" horiz-adv-x="4096" d="M2088 468h1920v1160h-1920v-1160zM2208 578v846l840 -520l840 520v-846h-1680zM2262 1518h1572l-786 -486zM204 1128q0 -120 78 -222t210 -162q-6 -136 -90 -222q208 118 250 172q70 -14 144 -14q244 0 417 131t173 316t-173 316t-418 131t-418 -131t-173 -315zM1094 706 q118 -70 268 -70q52 0 104 10q14 -16 60 -48t86 -54l38 -22q-62 62 -66 162q96 44 154 119t58 163q0 132 -122 228t-298 100q60 -90 60 -192q0 -130 -94 -237t-248 -159z" />
<glyph unicode="&#x2000;" horiz-adv-x="1006" />
<glyph unicode="&#x2001;" horiz-adv-x="2014" />
<glyph unicode="&#x2002;" horiz-adv-x="1006" />
<glyph unicode="&#x2003;" horiz-adv-x="2014" />
<glyph unicode="&#x2004;" horiz-adv-x="670" />
<glyph unicode="&#x2005;" horiz-adv-x="502" />
<glyph unicode="&#x2006;" horiz-adv-x="334" />
<glyph unicode="&#x2007;" horiz-adv-x="334" />
<glyph unicode="&#x2008;" horiz-adv-x="250" />
<glyph unicode="&#x2009;" horiz-adv-x="402" />
<glyph unicode="&#x200a;" horiz-adv-x="110" />
<glyph unicode="&#x2010;" d="M40 808v480h1920v-480h-1920z" />
<glyph unicode="&#x2011;" d="M40 808v480h1920v-480h-1920z" />
<glyph unicode="&#x2012;" d="M40 808v480h1920v-480h-1920z" />
<glyph unicode="&#x2013;" horiz-adv-x="1024" d="M40 808v480h896v-480h-896z" />
<glyph unicode="&#x2014;" d="M40 808v480h1920v-480h-1920z" />
<glyph unicode="&#x2026;" horiz-adv-x="6144" d="M4334 1532h1524v218h-462v218h-600v-218h-462v-218zM4444 128h1304v1388h-1304v-1388zM4606 262v1146h164v-1146h-164zM4892 1750v136h408v-136h-408zM5014 266v1144h164v-1144h-164zM5422 266v1144h164v-1144h-164zM2286 1532h1524v218h-462v218h-600v-218h-462v-218z M2396 128h1304v1388h-1304v-1388zM2558 262v1146h164v-1146h-164zM2844 1750v136h408v-136h-408zM2966 266v1144h164v-1144h-164zM3374 266v1144h164v-1144h-164zM238 1532h1524v218h-462v218h-600v-218h-462v-218zM348 128h1304v1388h-1304v-1388zM510 262v1146h164v-1146 h-164zM796 1750v136h408v-136h-408zM918 266v1144h164v-1144h-164zM1326 266v1144h164v-1144h-164z" />
<glyph unicode="&#x202f;" horiz-adv-x="402" />
<glyph unicode="&#x2039;" d="M40 1048l1920 -960v400l-1200 560l1200 560v400z" />
<glyph unicode="&#x203a;" d="M40 88l1920 960l-1920 960v-400l1200 -560l-1200 -560v-400z" />
<glyph unicode="&#x205f;" horiz-adv-x="502" />
<glyph unicode="&#x2122;" horiz-adv-x="4096" d="M2328 328l1440 720l-1440 720v-1440zM40 88h512v512h-512v-512zM40 792h512v512h-512v-512zM40 1496h512v512h-512v-512zM744 88h512v512h-512v-512zM744 792h512v512h-512v-512zM744 1496h512v512h-512v-512zM1448 88h512v512h-512v-512zM1448 792h512v512h-512v-512z M1448 1496h512v512h-512v-512z" />
<glyph unicode="&#xe000;" horiz-adv-x="1895" d="M0 1895h1895v-1895h-1895v1895z" />
<glyph unicode="&#xfb01;" horiz-adv-x="4096" d="M2088 1048q0 -196 76 -373t205 -306t306 -205t373 -76t373 76t306 205t205 306t76 373t-76 373t-205 306t-306 205t-373 76t-373 -76t-306 -205t-205 -306t-76 -373zM2790 338v80h18q66 0 86 26q19 25 19 102q0 14 -1 30v434q1 16 1 30q0 76 -19 98q-20 24 -93 24h-11v76 q174 10 372 92l32 -16v-740q-1 -16 -1 -30q0 -75 18 -100q19 -26 78 -26h17v-80h-516zM2884 1592q2 74 46 119t112 47q72 -2 115 -48t43 -118q0 -74 -45 -120t-113 -46t-112 46t-46 120zM40 1048q0 -196 76 -373t205 -306t306 -205t373 -76t373 76t306 205t205 306t76 373 t-76 373t-205 306t-306 205t-373 76t-373 -76t-306 -205t-205 -306t-76 -373zM280 868v360h540v540h360v-540h540v-360h-540v-540h-360v540h-540z" />
<glyph unicode="&#xfb02;" horiz-adv-x="4096" d="M2088 1048q0 -196 76 -373t205 -306t306 -205t373 -76t373 76t306 205t205 306t76 373t-76 373t-205 306t-306 205t-373 76t-373 -76t-306 -205t-205 -306t-76 -373zM2942 926v690h218v-568l290 -178l-114 -186zM40 1048q0 -196 76 -373t205 -306t306 -205t373 -76 t373 76t306 205t205 306t76 373t-76 373t-205 306t-306 205t-373 76t-373 -76t-306 -205t-205 -306t-76 -373zM280 868v360h540v540h360v-540h540v-360h-540v-540h-360v540h-540z" />
<glyph unicode="&#xfb03;" horiz-adv-x="6144" d="M4136 1048q0 -196 76 -373t205 -306t306 -205t373 -76t373 76t306 205t205 306t76 373t-76 373t-205 306t-306 205t-373 76t-373 -76t-306 -205t-205 -306t-76 -373zM4838 338v80h18q66 0 86 26q19 25 19 102q0 14 -1 30v434q1 16 1 30q0 76 -19 98q-20 24 -93 24h-11v76 q174 10 372 92l32 -16v-740q-1 -16 -1 -30q0 -75 18 -100q19 -26 78 -26h17v-80h-516zM4932 1592q2 74 46 119t112 47q72 -2 115 -48t43 -118q0 -74 -45 -120t-113 -46t-112 46t-46 120zM2088 1048q0 -196 76 -373t205 -306t306 -205t373 -76t373 76t306 205t205 306t76 373 t-76 373t-205 306t-306 205t-373 76t-373 -76t-306 -205t-205 -306t-76 -373zM2328 868v360h540v540h360v-540h540v-360h-540v-540h-360v540h-540zM40 1048q0 -196 76 -373t205 -306t306 -205t373 -76t373 76t306 205t205 306t76 373t-76 373t-205 306t-306 205t-373 76 t-373 -76t-306 -205t-205 -306t-76 -373zM280 868v360h540v540h360v-540h540v-360h-540v-540h-360v540h-540z" />
<glyph unicode="&#xfb04;" horiz-adv-x="6144" d="M4136 1048q0 -196 76 -373t205 -306t306 -205t373 -76t373 76t306 205t205 306t76 373t-76 373t-205 306t-306 205t-373 76t-373 -76t-306 -205t-205 -306t-76 -373zM4990 926v690h218v-568l290 -178l-114 -186zM2088 1048q0 -196 76 -373t205 -306t306 -205t373 -76 t373 76t306 205t205 306t76 373t-76 373t-205 306t-306 205t-373 76t-373 -76t-306 -205t-205 -306t-76 -373zM2328 868v360h540v540h360v-540h540v-360h-540v-540h-360v540h-540zM40 1048q0 -196 76 -373t205 -306t306 -205t373 -76t373 76t306 205t205 306t76 373t-76 373 t-205 306t-306 205t-373 76t-373 -76t-306 -205t-205 -306t-76 -373zM280 868v360h540v540h360v-540h540v-360h-540v-540h-360v540h-540z" />
</font>
</defs>
</svg>
